<svg width="32" height="32" viewBox="0 0 32 32" fill="none" xmlns="http://www.w3.org/2000/svg">
<g clip-path="url(#clip0_22_40)">
<path d="M14.7831 0.00197481C15.1221 -0.041296 15.4712 0.00803911 15.8118 0.00996839C16.5871 0.0143782 17.3451 -0.0497016 18.1124 0.117732C19.2104 0.357306 20.1577 0.987558 20.7681 1.97335C21.1127 2.52974 21.357 3.18362 21.4665 3.83524C21.6021 4.64257 21.5215 5.50964 21.5216 6.32731C21.5218 7.58871 21.6672 8.95746 21.408 10.1931C23.3716 10.2252 25.332 10.1796 27.2949 10.1823C28.7326 10.1842 29.7106 10.3285 30.7618 11.4351C31.9654 12.7023 31.9923 14.2936 31.9809 15.9642C31.9703 17.515 31.8055 18.9366 30.6877 20.0722C30.1356 20.633 29.4659 21.03 28.7138 21.216C27.8855 21.4208 26.7521 21.3165 25.8803 21.3115L21.4044 21.2757C21.4268 21.5387 21.4558 21.8013 21.4715 22.0647C21.5248 22.9546 21.4951 23.8659 21.5 24.7586C21.5055 25.776 21.5933 27.6232 21.3733 28.575C21.2096 29.2834 20.8641 29.9703 20.3963 30.513C19.6241 31.4089 18.4036 31.9088 17.2623 31.9673C16.41 32.044 15.5201 32.0241 14.667 31.9652C13.39 31.8772 12.2555 31.3033 11.4149 30.2938C10.9619 29.7497 10.6283 29.0777 10.474 28.3757C10.2963 27.5668 10.3755 26.6896 10.3661 25.8635C10.3488 24.3431 10.294 22.7943 10.4067 21.2786L8.91544 21.2961L6.13579 21.3151C4.36249 21.3231 2.51567 21.4272 1.14928 20.0281C-0.0080774 18.8431 0.00246375 17.2673 -0.00224313 15.6939C-0.00714889 14.0681 0.0291801 12.7073 1.21047 11.4848C1.72485 10.9524 2.33807 10.5936 3.03986 10.4019C4.15267 10.0979 5.36459 10.2098 6.50591 10.2091L10.4121 10.2054C10.3258 8.9742 10.3447 7.74918 10.3448 6.51576C10.3448 5.53245 10.2589 4.46604 10.4769 3.50375C10.6233 2.85772 10.9174 2.24579 11.3224 1.73281C12.1977 0.624028 13.4431 0.138953 14.7831 0.00197481Z" fill="#006D5B"/>
<path d="M13.3514 18.1061C13.4572 18.1017 13.5595 18.0946 13.6568 18.1464C13.7795 18.2119 13.9111 18.399 13.9463 18.5359C14.0121 18.7923 13.9108 19.0487 13.7799 19.2631C13.4939 19.7316 12.5516 20.7669 12.0314 20.8914C11.9546 20.8784 11.8721 20.8642 11.8016 20.8281C11.5253 20.6862 11.4445 20.3521 11.3628 20.0712C11.5938 19.7576 11.9177 19.4908 12.1976 19.2247L13.3514 18.1061Z" fill="#FFB81C"/>
<path d="M10.7942 16.5258L10.8619 16.5243C11.2009 16.5192 11.7759 16.5491 12.0219 16.8219C12.0953 16.9034 12.1267 17.0085 12.1178 17.1187C12.0708 17.6986 11.2316 18.3312 10.8328 18.6905C10.759 18.7396 10.6915 18.7772 10.6047 18.7953C10.4208 18.8337 10.2527 18.805 10.1008 18.6877C9.75764 18.4229 9.67431 18.0309 9.60596 17.6209C9.94107 17.1093 10.2656 16.8074 10.7942 16.5258Z" fill="#FFB81C"/>
<path d="M15.1515 20.3163C15.3316 20.2976 15.6113 20.3396 15.7682 20.4445C15.8599 20.5058 15.9191 20.583 15.942 20.6938C15.9952 20.951 15.858 21.2371 15.72 21.4404C15.3347 22.0082 14.7083 22.5806 14.036 22.697C13.861 22.6804 13.6832 22.5956 13.527 22.5144C13.4071 22.452 13.3109 22.3651 13.2703 22.2284C13.2178 22.0515 13.2692 21.8672 13.3549 21.7111C13.6646 21.1477 14.5566 20.5025 15.1515 20.3163Z" fill="#FFB81C"/>
<path d="M16.132 1.2449C16.4819 1.23918 16.8339 1.23353 17.1834 1.25407C18.1148 1.30884 18.912 1.57246 19.5444 2.32178C19.876 2.71466 20.1149 3.21834 20.2232 3.72815C20.3697 4.41794 20.2895 5.17876 20.2868 5.88122C20.2837 6.67898 20.312 7.47832 20.2933 8.27573C20.2827 8.72766 20.2409 9.17436 20.212 9.62505C19.8086 9.18311 19.4053 8.74254 18.9354 8.37515C17.8512 7.52737 16.7546 7.28794 15.4231 7.48948C14.0219 7.76998 13.329 8.38308 12.3233 9.37713C12.1383 9.55993 11.9705 9.76327 11.7765 9.93518L11.7249 9.92643C11.6173 9.76478 11.6036 9.45293 11.5946 9.25807C11.5505 8.2955 11.5716 7.32625 11.5701 6.36292C11.5686 5.47911 11.4714 4.53011 11.6674 3.66504C11.7823 3.15757 12.0165 2.67194 12.358 2.28822C13.3356 1.19005 14.8116 1.29424 16.132 1.2449Z" fill="#FFB81C"/>
<path d="M20.1584 21.6812C20.185 21.6934 20.2011 21.7198 20.2202 21.7421C20.3408 22.5096 20.2699 23.6076 20.2707 24.4051C20.2717 25.5302 20.3429 26.7522 20.2297 27.867C20.1947 28.2112 20.1128 28.5413 19.9839 28.8604C19.6585 29.6654 19.0704 30.2829 18.287 30.6067C18.0318 30.7122 17.7645 30.7748 17.4918 30.8066C16.9918 30.865 16.4797 30.8322 15.9774 30.8332C15.4036 30.8343 14.8194 30.8709 14.2492 30.7879C13.9362 30.7424 13.6353 30.6585 13.3461 30.5251C12.5879 30.1751 12.0338 29.521 11.7407 28.7192C11.4739 27.8388 11.6074 26.4901 11.6024 25.5533C11.5964 24.418 11.5184 23.2943 11.6421 22.1617C11.8506 22.4929 12.0684 22.8098 12.3267 23.1016C12.7839 23.6182 13.3459 24.0139 14.0412 24.0346C15.2158 24.0697 16.1093 22.9562 16.8941 22.1885C17.2267 22.41 17.5493 22.5513 17.9496 22.5759C18.8475 22.6311 19.5031 22.2843 20.1584 21.6812Z" fill="#FFB81C"/>
<path d="M16.0199 8.75155C16.1516 8.73411 16.2821 8.72846 16.4148 8.72688C18.0414 8.70786 18.8986 10.0847 19.9472 11.1376C20.1078 11.2989 20.2695 11.4183 20.4912 11.4661C21.0066 11.5772 21.6283 11.5193 22.1572 11.531C23.5133 11.561 24.8716 11.5845 26.2281 11.5635C26.6776 11.5565 27.1264 11.5141 27.5756 11.5094C28.4495 11.5003 29.2484 11.7079 29.8845 12.3628C30.496 12.9924 30.7278 13.7492 30.732 14.6302C30.7344 15.1585 30.7218 15.6878 30.7135 16.216C30.6953 17.3857 30.6512 18.3462 29.8065 19.2183C28.9478 20.105 27.8766 20.0313 26.7531 20.01C26.2083 19.9996 25.663 20.0029 25.1181 20.0033C24.1893 19.996 23.273 20.0974 22.3425 20.037C22.6471 19.4389 22.8874 18.9428 22.7891 18.245C22.7402 17.8981 22.6472 17.6841 22.4462 17.4002C21.9194 16.6563 21.2514 16.0134 20.6295 15.3573L18.527 13.1103L17.4258 11.9386C17.1835 11.6801 16.9508 11.3888 16.6673 11.1786C16.3417 10.9371 15.8955 10.981 15.5229 11.0434C14.8833 11.5686 14.4743 12.4657 13.5916 12.5971C13.2621 12.6461 12.8557 12.563 12.5883 12.35C12.4412 12.2328 12.3537 12.0749 12.3346 11.8828C12.2985 11.5194 12.5091 11.1813 12.7209 10.9119C12.9399 10.6331 13.1959 10.3776 13.4429 10.1256C14.2517 9.30056 14.8757 8.87502 16.0199 8.75155Z" fill="#FFB81C"/>
<path d="M6.82683 11.5101L9.25757 11.5079C9.78401 11.5099 10.3553 11.4851 10.8744 11.5732C11.1717 12.2825 10.9819 12.6563 11.6681 13.2075C12.2682 13.6896 13.0425 13.9686 13.8036 13.8614C14.76 13.7269 15.4291 13.1015 15.9931 12.3364C16.4501 12.7935 16.864 13.2991 17.3097 13.7687L19.6584 16.2683C20.2137 16.8582 21.2226 17.7656 21.5722 18.4555C21.5438 18.6695 21.4956 18.9013 21.3694 19.0781C21.1601 19.3713 20.819 19.4099 20.4977 19.4649C20.0114 19.1797 19.6455 18.6112 19.2761 18.1867C18.7104 17.5368 16.7918 15.4297 16.0901 15.109C15.9274 15.0346 15.7372 14.9858 15.5673 15.0639C15.3132 15.1808 15.2095 15.495 15.1247 15.7466C15.1949 15.9083 15.2922 16.0471 15.4063 16.1783C15.7804 16.6084 16.2351 16.9794 16.6407 17.3779C17.1667 17.8946 17.6613 18.4456 18.1859 18.964C18.5023 19.2768 18.8788 19.5704 19.1394 19.9365C19.3231 20.1946 19.3246 20.3295 19.2821 20.6368C19.1611 20.8117 19.04 20.956 18.863 21.0735C18.4008 21.3804 17.8895 21.3117 17.3862 21.1919C17.1501 20.8336 17.031 20.4031 16.7943 20.0401C16.7291 19.9401 16.6576 19.8403 16.5788 19.7513C16.3992 19.5485 16.1318 19.4424 15.9576 19.2418C15.8297 19.0945 15.7285 18.8845 15.6239 18.7164C15.4386 18.4185 15.2081 18.163 14.9532 17.928C14.524 17.5326 13.9257 17.2616 13.5404 16.8669C13.2277 16.5466 13.1845 16.0612 12.8483 15.7412C12.4287 15.3417 11.7128 15.2146 11.1621 15.2406C10.3787 15.2775 9.60462 15.6337 9.07367 16.2389C8.67617 16.692 8.40264 17.3197 8.4389 17.941C8.50109 19.0081 9.13194 19.358 9.82571 19.9914C9.56995 20.0195 9.31305 20.0399 9.05623 20.0539C8.29816 20.0949 7.52815 20.0226 6.76862 20.0178C5.83925 20.0118 4.18707 20.1214 3.35196 19.9373C2.87338 19.8319 2.41098 19.6034 2.04955 19.2579C1.50699 18.7395 1.25269 18.0078 1.2218 17.2536C1.20423 16.8251 1.21895 16.3946 1.20655 15.9654C1.17214 14.7778 1.05759 13.4682 1.89853 12.5279C2.75816 11.5666 3.87674 11.5334 5.05439 11.5303C5.6454 11.5288 6.23615 11.5347 6.82683 11.5101Z" fill="#FFB81C"/>
</g>
<defs>
<clipPath id="clip0_22_40">
<rect width="32" height="32" fill="white"/>
</clipPath>
</defs>
</svg>
