<svg width="179" height="78" viewBox="0 0 179 78" fill="none" xmlns="http://www.w3.org/2000/svg">
<mask id="mask0_22_51" style="mask-type:luminance" maskUnits="userSpaceOnUse" x="0" y="6" width="72" height="72">
<path d="M71.8876 6.44037H0V78H71.8876V6.44037Z" fill="white"/>
</mask>
<g mask="url(#mask0_22_51)">
<path d="M33.2099 6.44475C33.9716 6.34798 34.7558 6.45831 35.5211 6.46263C37.2626 6.47249 38.9656 6.32919 40.6893 6.70361C43.156 7.23933 45.284 8.64877 46.6554 10.8532C47.4294 12.0974 47.9783 13.5597 48.2242 15.0169C48.5288 16.8222 48.3478 18.7612 48.3481 20.5897C48.3485 23.4105 48.6751 26.4713 48.0928 29.2345C52.5041 29.3063 56.9079 29.2043 61.3176 29.2103C64.5474 29.2146 66.7443 29.5373 69.1059 32.012C71.8099 34.8457 71.8702 38.4043 71.8445 42.14C71.8208 45.6081 71.4507 48.7871 68.9394 51.3266C67.6993 52.5807 66.1947 53.4685 64.505 53.8843C62.6444 54.3423 60.0983 54.109 58.1397 54.0979L48.0848 54.0178C48.1351 54.6059 48.2001 55.1932 48.2355 55.7824C48.3551 57.7723 48.2885 59.8101 48.2994 61.8063C48.3119 64.0817 48.5091 68.2124 48.015 70.3408C47.6471 71.9253 46.8709 73.461 45.82 74.6746C44.0853 76.6783 41.3434 77.7961 38.7794 77.927C36.8648 78.098 34.8657 78.0537 32.9494 77.922C30.0804 77.7252 27.5318 76.4421 25.6435 74.1844C24.6257 72.9679 23.8763 71.465 23.5297 69.8952C23.1305 68.0861 23.3084 66.1245 23.2873 64.2772C23.2484 60.8773 23.1254 57.4139 23.3786 54.0242L20.0284 54.0634L13.784 54.1061C9.80027 54.1238 5.65144 54.3566 2.58187 51.228C-0.0181242 48.578 0.00555629 45.0542 -0.00501764 41.5357C-0.0160384 37.9 0.0655743 34.8568 2.71934 32.1231C3.87487 30.9325 5.25246 30.13 6.82902 29.7014C9.32897 29.0217 12.0515 29.272 14.6154 29.2703L23.3906 29.2621C23.1969 26.5088 23.2394 23.7693 23.2395 21.0111C23.2395 18.8122 23.0465 16.4274 23.5363 14.2756C23.8651 12.8309 24.5258 11.4624 25.4357 10.3153C27.402 7.83578 30.1997 6.75107 33.2099 6.44475Z" fill="#006D5B"/>
<path d="M29.9937 46.9298C30.2312 46.9201 30.4612 46.9043 30.6796 47.0201C30.9555 47.1665 31.2511 47.585 31.33 47.891C31.4779 48.4643 31.2504 49.0379 30.9563 49.5172C30.3139 50.565 28.1969 52.8801 27.0284 53.1586C26.8557 53.1295 26.6703 53.0977 26.512 53.0169C25.8913 52.6997 25.7098 51.9526 25.5262 51.3243C26.0451 50.6232 26.773 50.0264 27.4017 49.4314L29.9937 46.9298Z" fill="#FFB81C"/>
<path d="M24.2491 43.396L24.4012 43.3927C25.1628 43.3813 26.4544 43.448 27.0071 44.0582C27.172 44.2403 27.2426 44.4754 27.2225 44.7218C27.117 46.0188 25.2317 47.4334 24.3357 48.2368C24.17 48.3465 24.0184 48.4306 23.8233 48.4711C23.4102 48.5571 23.0325 48.4929 22.6913 48.2306C21.9205 47.6383 21.7333 46.7617 21.5797 45.845C22.3325 44.7009 23.0617 44.0257 24.2491 43.396Z" fill="#FFB81C"/>
<path d="M34.0378 51.8725C34.4422 51.8308 35.0708 51.9246 35.4231 52.1591C35.6291 52.2962 35.7621 52.4688 35.8136 52.7167C35.9331 53.2917 35.6249 53.9315 35.315 54.3862C34.4494 55.656 33.042 56.936 31.5319 57.1964C31.1387 57.1591 30.7392 56.9695 30.3883 56.7879C30.119 56.6485 29.9029 56.4542 29.8118 56.1483C29.6939 55.7527 29.8092 55.3406 30.0018 54.9916C30.6975 53.7317 32.7013 52.2888 34.0378 51.8725Z" fill="#FFB81C"/>
<path d="M36.2405 9.22424C37.0265 9.21144 37.8172 9.19884 38.6023 9.24471C40.6948 9.36722 42.4856 9.95673 43.9063 11.6324C44.6512 12.511 45.1879 13.6373 45.4313 14.7774C45.7604 16.3199 45.5802 18.0213 45.5741 19.5922C45.5671 21.3761 45.6307 23.1636 45.5887 24.9468C45.565 25.9575 45.471 26.9564 45.4061 27.9643C44.4998 26.976 43.5938 25.9907 42.5382 25.1692C40.1025 23.2733 37.639 22.7379 34.6479 23.1886C31.5002 23.8159 29.9435 25.1869 27.6842 27.4098C27.2687 27.8187 26.8918 28.2733 26.4558 28.6578L26.34 28.6382C26.0981 28.2767 26.0674 27.5794 26.0473 27.1436C25.9481 24.991 25.9956 22.8236 25.992 20.6693C25.9888 18.6929 25.7705 16.5708 26.2107 14.6362C26.4689 13.5014 26.9949 12.4154 27.7623 11.5574C29.9583 9.10159 33.2742 9.33459 36.2405 9.22424Z" fill="#FFB81C"/>
<path d="M45.2856 54.9246C45.3451 54.952 45.3815 55.011 45.4244 55.0609C45.6952 56.7773 45.5359 59.2326 45.5377 61.0161C45.5401 63.5319 45.6999 66.2646 45.4457 68.7575C45.3671 69.5273 45.1831 70.2655 44.8935 70.9791C44.1625 72.779 42.8412 74.1601 41.0815 74.8843C40.5081 75.1204 39.9076 75.26 39.2949 75.3315C38.1718 75.4618 37.0213 75.3888 35.8929 75.3909C34.604 75.3931 33.2915 75.4754 32.0105 75.2893C31.3074 75.1877 30.6315 75.0002 29.9818 74.7018C28.2785 73.9189 27.0337 72.4563 26.3752 70.6633C25.7758 68.6945 26.0758 65.6786 26.0645 63.5837C26.051 61.0449 25.8758 58.532 26.1537 55.9991C26.6222 56.7398 27.1115 57.4486 27.6917 58.1011C28.7188 59.2563 29.9814 60.1411 31.5433 60.1874C34.1819 60.2659 36.1893 57.7759 37.9524 56.0591C38.6995 56.5544 39.4242 56.8705 40.3234 56.9255C42.3407 57.0489 43.8133 56.2733 45.2856 54.9246Z" fill="#FFB81C"/>
<path d="M35.9884 26.0109C36.2844 25.972 36.5776 25.9593 36.8757 25.9558C40.5298 25.9133 42.4554 28.9923 44.8111 31.3468C45.1719 31.7076 45.5351 31.9744 46.0331 32.0813C47.1909 32.3299 48.5876 32.2003 49.7757 32.2265C52.8223 32.2935 55.8738 32.346 58.921 32.2991C59.9307 32.2835 60.9391 32.1886 61.9483 32.1783C63.9113 32.1578 65.7062 32.622 67.135 34.0866C68.5087 35.4946 69.0295 37.1869 69.0389 39.157C69.0444 40.3385 69.0161 41.5221 68.9975 42.7034C68.9566 45.3191 68.8575 47.4668 66.9599 49.4172C65.0308 51.3999 62.6244 51.2352 60.1004 51.1875C58.8765 51.1644 57.6515 51.1717 56.4274 51.1725C54.3408 51.1563 52.2825 51.383 50.192 51.248C50.8765 49.9104 51.4162 48.801 51.1953 47.2406C51.0855 46.4648 50.8766 45.9862 50.425 45.3514C49.2416 43.6879 47.7409 42.2502 46.344 40.783L41.6205 35.7581L39.1468 33.1379C38.6025 32.5599 38.0798 31.9084 37.4428 31.4384C36.7114 30.8985 35.7089 30.9966 34.8718 31.136C33.4351 32.3106 32.5164 34.3166 30.5333 34.6105C29.7931 34.7202 28.8801 34.5343 28.2794 34.058C27.9489 33.7958 27.7524 33.4427 27.7096 33.0131C27.6284 32.2005 28.1015 31.4444 28.5772 30.8419C29.0693 30.2185 29.6443 29.6473 30.1993 29.0837C32.0163 27.2387 33.418 26.2871 35.9884 26.0109Z" fill="#FFB81C"/>
<path d="M15.3364 32.1797L20.797 32.1749C21.9797 32.1792 23.263 32.1239 24.4292 32.3208C25.0972 33.9071 24.6707 34.743 26.2122 35.9755C27.5605 37.0536 29.2998 37.6775 31.0097 37.4379C33.1581 37.1369 34.6614 35.7385 35.9284 34.0275C36.9549 35.0498 37.8848 36.1803 38.886 37.2305L44.1623 42.8203C45.4099 44.1394 47.6763 46.1685 48.4617 47.7114C48.3978 48.1899 48.2896 48.7081 48.006 49.1035C47.5358 49.7593 46.7696 49.8456 46.0479 49.9687C44.9553 49.3308 44.1334 48.0594 43.3034 47.1101C42.0328 45.6568 37.7225 40.9448 36.1462 40.2277C35.7807 40.0614 35.3533 39.9522 34.9717 40.1269C34.4009 40.3883 34.168 41.0909 33.9773 41.6536C34.1352 42.0152 34.3537 42.3255 34.61 42.6189C35.4506 43.5808 36.4719 44.4103 37.3832 45.3015C38.5648 46.4569 39.676 47.6891 40.8543 48.8483C41.5653 49.548 42.4109 50.2044 42.9965 51.0232C43.4092 51.6004 43.4124 51.9019 43.317 52.5892C43.0452 52.9804 42.7731 53.303 42.3756 53.5657C41.3371 54.252 40.1886 54.0984 39.0579 53.8304C38.5274 53.0293 38.26 52.0666 37.7283 51.2549C37.5818 51.0313 37.421 50.808 37.2441 50.609C36.8405 50.1554 36.2399 49.9183 35.8486 49.4697C35.5612 49.1401 35.3338 48.6706 35.0989 48.2947C34.6825 47.6286 34.1649 47.0571 33.5921 46.5317C32.6281 45.6475 31.2838 45.0414 30.4182 44.1588C29.7158 43.4426 29.6188 42.357 28.8636 41.6414C27.9209 40.7482 26.3126 40.4639 25.0756 40.522C23.3155 40.6046 21.5767 41.401 20.3839 42.7545C19.4909 43.7677 18.8764 45.1714 18.9579 46.5608C19.0976 48.9471 20.5148 49.7295 22.0733 51.146C21.4988 51.2089 20.9217 51.2545 20.3447 51.2856C18.6417 51.3773 16.9119 51.2158 15.2056 51.2048C13.1178 51.1916 9.40624 51.4366 7.53019 51.0249C6.45504 50.7892 5.41627 50.2782 4.60431 49.5057C3.38547 48.3463 2.81418 46.7101 2.74478 45.0235C2.70532 44.0654 2.73838 43.1026 2.71053 42.1428C2.63324 39.4872 2.37589 36.5585 4.26505 34.4557C6.19621 32.306 8.70907 32.2317 11.3547 32.2249C12.6824 32.2216 14.0095 32.2348 15.3364 32.1797Z" fill="#FFB81C"/>
</g>
<path d="M65.6478 14.9703C65.456 13.1765 64.8234 11.7835 63.7499 10.7912C62.6955 9.79888 61.3345 9.30276 59.6667 9.30276C58.6507 9.30276 57.6922 9.52223 56.7912 9.96111C55.9094 10.3809 55.133 10.9916 54.462 11.793C53.7911 12.5945 53.2639 13.5582 52.8805 14.684C52.4971 15.8099 52.3054 17.0789 52.3054 18.491C52.3054 20.2848 52.6505 21.8686 53.3406 23.2426C54.0307 24.6165 54.9604 25.6851 56.1298 26.4484C57.2992 27.2118 58.5932 27.5934 60.0118 27.5934C61.2578 27.5934 62.4847 27.3167 63.6924 26.7633C64.9001 26.1908 65.8874 25.3703 66.6542 24.3017L67.4018 24.9028C66.5775 26.0286 65.6861 26.8969 64.7276 27.5075C63.7691 28.1181 62.8106 28.5285 61.8521 28.7384C60.9127 28.9673 60.0501 29.0818 59.2641 29.0818C57.8264 29.0818 56.5037 28.8242 55.2959 28.309C54.1074 27.7938 53.0722 27.0782 52.1904 26.1622C51.3277 25.2271 50.6568 24.149 50.1776 22.9277C49.7175 21.6874 49.4874 20.3516 49.4874 18.9204C49.4874 17.5655 49.6887 16.2488 50.0913 14.9703C50.513 13.6917 51.136 12.5373 51.9604 11.5068C52.7847 10.4763 53.8199 9.65576 55.0659 9.04514C56.3311 8.43453 57.7976 8.12918 59.4654 8.12918C60.5389 8.12918 61.555 8.2723 62.5135 8.55854C63.4719 8.84478 64.3921 9.28365 65.2739 9.87524L65.1302 8.32955H66.6829V14.9703H65.6478ZM76.6674 29.0818C75.3253 29.0818 74.1082 28.7765 73.0155 28.1659C71.9228 27.5362 71.0504 26.6774 70.3987 25.5897C69.766 24.4829 69.4497 23.2235 69.4497 21.8114C69.4497 20.3038 69.766 18.949 70.3987 17.7468C71.0313 16.5446 71.8941 15.6 72.9868 14.913C74.0794 14.207 75.3058 13.854 76.6674 13.854C78.0088 13.854 79.2266 14.1783 80.3193 14.8272C81.412 15.4569 82.284 16.3156 82.936 17.4033C83.5873 18.491 83.9137 19.7314 83.9137 21.1244C83.9137 22.5937 83.5873 23.9391 82.936 25.1604C82.3034 26.3626 81.4407 27.3167 80.348 28.0228C79.2553 28.7288 78.0282 29.0818 76.6674 29.0818ZM76.8974 27.9369C77.9132 27.9369 78.7183 27.6506 79.3129 27.0782C79.9066 26.5057 80.3286 25.7615 80.5781 24.8455C80.8462 23.9295 80.9806 22.9659 80.9806 21.9545C80.9806 21.0958 80.8944 20.2562 80.7219 19.4356C80.568 18.596 80.3193 17.8422 79.9742 17.1743C79.6292 16.4873 79.1784 15.9435 78.6227 15.5428C78.0857 15.142 77.4337 14.9417 76.6674 14.9417C75.6703 14.9417 74.8558 15.2279 74.2232 15.8004C73.5906 16.3729 73.1205 17.1171 72.8142 18.033C72.5267 18.949 72.3829 19.9317 72.3829 20.9813C72.3829 22.1644 72.5454 23.2903 72.8717 24.3589C73.1974 25.4085 73.6956 26.2672 74.367 26.9351C75.0377 27.6029 75.8809 27.9369 76.8974 27.9369ZM86.3564 28.6239V27.7651C86.9509 27.7651 87.3628 27.622 87.5929 27.3358C87.8229 27.0304 87.9573 26.6202 87.9954 26.105C88.0343 25.5706 88.0529 24.96 88.0529 24.273V17.7468C88.0529 17.4415 88.0529 17.1362 88.0529 16.8308C88.0724 16.5255 88.1105 16.2106 88.168 15.8862C87.8229 15.9054 87.4778 15.9244 87.1328 15.9435C86.8071 15.9626 86.4714 15.9816 86.1264 16.0007V14.7985C86.9703 14.7985 87.6029 14.7604 88.0242 14.684C88.4656 14.6077 88.7912 14.5123 89.0019 14.3978C89.2132 14.2833 89.3857 14.1593 89.5195 14.0257H90.3533C90.3922 14.2165 90.4109 14.4359 90.4109 14.684C90.4303 14.9321 90.4497 15.2184 90.4684 15.5428C91.0435 15.0466 91.7048 14.6459 92.4525 14.3406C93.2001 14.0162 93.9477 13.854 94.6954 13.854C95.6543 13.854 96.4595 14.0257 97.1108 14.3692C97.7628 14.7127 98.271 15.1802 98.6348 15.7718C99.2868 15.2374 100.034 14.789 100.878 14.4264C101.74 14.0448 102.584 13.854 103.408 13.854C105.076 13.854 106.303 14.3597 107.089 15.371C107.875 16.3633 108.249 17.9949 108.21 20.2657L108.181 25.5897C108.181 25.9714 108.172 26.3148 108.153 26.6202C108.153 26.9064 108.124 27.2118 108.066 27.5362C108.373 27.517 108.67 27.5075 108.958 27.5075C109.265 27.4884 109.572 27.4694 109.878 27.4503V28.6239H104.012V27.7651C104.606 27.7651 105.018 27.622 105.248 27.3358C105.478 27.0304 105.613 26.6202 105.651 26.105C105.69 25.5706 105.709 24.96 105.709 24.273V20.2657C105.709 18.6246 105.44 17.3938 104.903 16.5732C104.386 15.7526 103.562 15.3519 102.43 15.371C101.837 15.371 101.242 15.5046 100.648 15.7718C100.054 16.0389 99.5363 16.3729 99.0949 16.7736C99.1912 17.0789 99.2581 17.4128 99.2962 17.7754C99.3537 18.1189 99.3824 18.4815 99.3824 18.8631C99.3637 19.9699 99.3537 21.0863 99.3537 22.2121C99.3537 23.338 99.3443 24.4639 99.3249 25.5897C99.3249 25.9714 99.3156 26.3148 99.2962 26.6202C99.2962 26.9064 99.2674 27.2118 99.2099 27.5362C99.5169 27.517 99.8137 27.5075 100.101 27.5075C100.408 27.4884 100.715 27.4694 101.021 27.4503V28.6239H95.1554V27.7651C95.7499 27.7651 96.1525 27.622 96.3631 27.3358C96.5932 27.0304 96.7276 26.6202 96.7657 26.105C96.8232 25.5706 96.852 24.96 96.852 24.273L96.8807 20.2657C96.9001 18.6246 96.6608 17.3842 96.1619 16.5446C95.6637 15.705 94.8492 15.2947 93.7177 15.3138C93.1239 15.3138 92.5387 15.4474 91.9636 15.7145C91.3885 15.9626 90.8997 16.287 90.4971 16.6877C90.4971 16.9167 90.4971 17.1648 90.4971 17.4319C90.5165 17.68 90.5259 17.9472 90.5259 18.2334V25.5897C90.5259 25.9714 90.5165 26.3148 90.4971 26.6202C90.4971 26.9064 90.4684 27.2118 90.4109 27.5362C90.7178 27.517 91.0147 27.5075 91.3023 27.5075C91.6092 27.4884 91.9162 27.4694 92.2224 27.4503V28.6239H86.3564ZM112.05 28.6239V27.7651C112.645 27.7651 113.057 27.622 113.287 27.3358C113.517 27.0304 113.651 26.6202 113.689 26.105C113.728 25.5706 113.747 24.96 113.747 24.273V17.7468C113.747 17.4415 113.747 17.1362 113.747 16.8308C113.766 16.5255 113.805 16.2106 113.862 15.8862C113.517 15.9054 113.172 15.9244 112.827 15.9435C112.501 15.9626 112.165 15.9816 111.82 16.0007V14.7985C112.664 14.7985 113.297 14.7604 113.718 14.684C114.16 14.6077 114.485 14.5123 114.696 14.3978C114.907 14.2833 115.08 14.1593 115.213 14.0257H116.047C116.086 14.2165 116.105 14.4359 116.105 14.684C116.124 14.9321 116.144 15.2184 116.162 15.5428C116.738 15.0466 117.399 14.6459 118.147 14.3406C118.894 14.0162 119.642 13.854 120.389 13.854C121.348 13.854 122.154 14.0257 122.805 14.3692C123.457 14.7127 123.965 15.1802 124.329 15.7718C124.981 15.2374 125.728 14.789 126.572 14.4264C127.434 14.0448 128.278 13.854 129.102 13.854C130.77 13.854 131.997 14.3597 132.783 15.371C133.569 16.3633 133.943 17.9949 133.904 20.2657L133.876 25.5897C133.876 25.9714 133.866 26.3148 133.847 26.6202C133.847 26.9064 133.818 27.2118 133.76 27.5362C134.067 27.517 134.364 27.5075 134.652 27.5075C134.959 27.4884 135.266 27.4694 135.572 27.4503V28.6239H129.706V27.7651C130.301 27.7651 130.712 27.622 130.942 27.3358C131.173 27.0304 131.307 26.6202 131.345 26.105C131.384 25.5706 131.403 24.96 131.403 24.273V20.2657C131.403 18.6246 131.134 17.3938 130.597 16.5732C130.08 15.7526 129.256 15.3519 128.125 15.371C127.531 15.371 126.936 15.5046 126.342 15.7718C125.748 16.0389 125.23 16.3729 124.789 16.7736C124.885 17.0789 124.952 17.4128 124.99 17.7754C125.048 18.1189 125.076 18.4815 125.076 18.8631C125.058 19.9699 125.048 21.0863 125.048 22.2121C125.048 23.338 125.038 24.4639 125.019 25.5897C125.019 25.9714 125.01 26.3148 124.99 26.6202C124.99 26.9064 124.961 27.2118 124.904 27.5362C125.211 27.517 125.508 27.5075 125.795 27.5075C126.102 27.4884 126.409 27.4694 126.716 27.4503V28.6239H120.849V27.7651C121.444 27.7651 121.847 27.622 122.057 27.3358C122.287 27.0304 122.422 26.6202 122.46 26.105C122.517 25.5706 122.546 24.96 122.546 24.273L122.575 20.2657C122.594 18.6246 122.355 17.3842 121.856 16.5446C121.358 15.705 120.543 15.2947 119.412 15.3138C118.818 15.3138 118.233 15.4474 117.658 15.7145C117.083 15.9626 116.594 16.287 116.191 16.6877C116.191 16.9167 116.191 17.1648 116.191 17.4319C116.211 17.68 116.22 17.9472 116.22 18.2334V25.5897C116.22 25.9714 116.211 26.3148 116.191 26.6202C116.191 26.9064 116.162 27.2118 116.105 27.5362C116.412 27.517 116.709 27.5075 116.996 27.5075C117.303 27.4884 117.61 27.4694 117.916 27.4503V28.6239H112.05ZM144.876 29.0818C143.534 29.0818 142.317 28.7765 141.225 28.1659C140.132 27.5362 139.259 26.6774 138.608 25.5897C137.975 24.4829 137.659 23.2235 137.659 21.8114C137.659 20.3038 137.975 18.949 138.608 17.7468C139.24 16.5446 140.103 15.6 141.196 14.913C142.289 14.207 143.515 13.854 144.876 13.854C146.218 13.854 147.436 14.1783 148.528 14.8272C149.621 15.4569 150.493 16.3156 151.145 17.4033C151.796 18.491 152.123 19.7314 152.123 21.1244C152.123 22.5937 151.796 23.9391 151.145 25.1604C150.512 26.3626 149.65 27.3167 148.557 28.0228C147.464 28.7288 146.237 29.0818 144.876 29.0818ZM145.107 27.9369C146.122 27.9369 146.927 27.6506 147.522 27.0782C148.116 26.5057 148.538 25.7615 148.787 24.8455C149.055 23.9295 149.19 22.9659 149.19 21.9545C149.19 21.0958 149.103 20.2562 148.931 19.4356C148.777 18.596 148.528 17.8422 148.183 17.1743C147.838 16.4873 147.387 15.9435 146.832 15.5428C146.295 15.142 145.643 14.9417 144.876 14.9417C143.879 14.9417 143.065 15.2279 142.432 15.8004C141.8 16.3729 141.33 17.1171 141.023 18.033C140.736 18.949 140.592 19.9317 140.592 20.9813C140.592 22.1644 140.754 23.2903 141.081 24.3589C141.406 25.4085 141.905 26.2672 142.576 26.9351C143.247 27.6029 144.09 27.9369 145.107 27.9369ZM154.565 28.6239V27.7651C155.16 27.7651 155.572 27.622 155.802 27.3358C156.032 27.0304 156.166 26.6202 156.204 26.105C156.243 25.5706 156.262 24.96 156.262 24.273L156.291 17.7468C156.291 17.4415 156.291 17.1362 156.291 16.8308C156.31 16.5255 156.348 16.2106 156.406 15.8862C156.061 15.9054 155.716 15.9244 155.371 15.9435C155.045 15.9626 154.709 15.9816 154.364 16.0007V14.7985C155.207 14.7985 155.84 14.7604 156.262 14.684C156.703 14.6077 157.029 14.5123 157.24 14.3978C157.45 14.2833 157.623 14.1593 157.757 14.0257H158.591C158.611 14.1593 158.62 14.3119 158.62 14.4837C158.639 14.6554 158.658 14.8463 158.677 15.0562C158.697 15.266 158.706 15.5046 158.706 15.7718C159.128 15.4092 159.588 15.0848 160.086 14.7985C160.604 14.5123 161.141 14.2833 161.697 14.1116C162.272 13.9398 162.838 13.854 163.393 13.854C165.061 13.854 166.278 14.3787 167.045 15.4283C167.812 16.4587 168.195 18.0712 168.195 20.2657V25.5897C168.195 25.9714 168.186 26.3148 168.167 26.6202C168.167 26.9064 168.138 27.2118 168.08 27.5362C168.387 27.517 168.684 27.5075 168.972 27.5075C169.279 27.4884 169.585 27.4694 169.892 27.4503V28.6239H164.026V27.7651C164.62 27.7651 165.032 27.622 165.262 27.3358C165.492 27.0304 165.627 26.6202 165.665 26.105C165.703 25.5706 165.722 24.96 165.722 24.273V20.2657C165.703 18.6246 165.426 17.3842 164.889 16.5446C164.371 15.705 163.546 15.2947 162.416 15.3138C161.725 15.3329 161.045 15.5141 160.374 15.8576C159.722 16.2011 159.176 16.64 158.735 17.1743C158.754 17.327 158.764 17.4987 158.764 17.6895C158.764 17.8804 158.764 18.0808 158.764 18.2906L158.735 25.5897C158.735 25.9714 158.726 26.3148 158.706 26.6202C158.706 26.9064 158.677 27.2118 158.62 27.5362C158.927 27.517 159.224 27.5075 159.511 27.5075C159.818 27.4884 160.125 27.4694 160.431 27.4503V28.6239H154.565Z" fill="#FFB81C"/>
<path d="M83.4471 52.6965C81.6262 52.6965 80.0634 52.3912 78.76 51.7805C77.4567 51.1699 76.3928 50.3589 75.5682 49.3475C74.7631 48.3171 74.1686 47.1816 73.7854 45.9413C73.4023 44.7009 73.2103 43.4605 73.2103 42.2202C73.2103 41.018 73.4116 39.8063 73.8142 38.5849C74.2168 37.3446 74.83 36.2092 75.6545 35.1787C76.4977 34.1482 77.543 33.3182 78.7888 32.6884C80.054 32.0587 81.5299 31.7438 83.2171 31.7438C84.9805 31.7438 86.5045 32.0587 87.7891 32.6884C89.0738 33.3182 90.1276 34.1578 90.9522 35.2073C91.7954 36.2378 92.4187 37.3636 92.8213 38.5849C93.2432 39.8063 93.4539 41.018 93.4539 42.2202C93.4539 43.4033 93.2526 44.6151 92.85 45.8554C92.4474 47.0767 91.8242 48.2121 90.9809 49.2616C90.1564 50.2921 89.1212 51.1222 87.8754 51.7519C86.6296 52.3816 85.153 52.6965 83.4471 52.6965ZM83.5046 51.5229C84.6929 51.5229 85.7281 51.2748 86.6102 50.7787C87.4922 50.2635 88.2204 49.586 88.7955 48.7464C89.3901 47.8877 89.8307 46.9431 90.1183 45.9127C90.4252 44.8631 90.5784 43.8136 90.5784 42.764C90.5784 41.5809 90.4152 40.4074 90.0895 39.2433C89.7639 38.0792 89.2844 37.0202 88.6518 36.066C88.0192 35.1119 87.2334 34.3486 86.2939 33.7761C85.3737 33.1846 84.3191 32.8888 83.1308 32.8888C81.9425 32.8888 80.8973 33.1464 79.9965 33.6616C79.1145 34.1769 78.3769 34.8638 77.7824 35.7226C77.2073 36.5622 76.7666 37.5068 76.4596 38.5563C76.1721 39.5868 76.0283 40.6363 76.0283 41.7049C76.0283 42.7545 76.1721 43.8517 76.4596 44.9967C76.7666 46.1416 77.2267 47.2102 77.8399 48.2026C78.4531 49.1949 79.2295 49.9963 80.169 50.607C81.1086 51.2176 82.22 51.5229 83.5046 51.5229ZM95.7241 59.5376V58.6789C96.3179 58.6789 96.7305 58.5263 96.9605 58.2209C97.1906 57.9347 97.3243 57.5244 97.3631 56.9901C97.4012 56.4749 97.4206 55.8738 97.4206 55.1868L97.4781 41.3615C97.4781 41.0561 97.4781 40.7508 97.4781 40.4455C97.4968 40.1402 97.5356 39.8253 97.5931 39.5009C97.2481 39.52 96.903 39.5391 96.558 39.5582C96.2316 39.5773 95.8966 39.5963 95.5515 39.6154V38.4132C96.3948 38.4132 97.0274 38.3751 97.4494 38.2987C97.89 38.2224 98.2064 38.127 98.3983 38.0125C98.6089 37.898 98.7815 37.774 98.9159 37.6404H99.7785C99.7972 37.8312 99.8166 38.0602 99.836 38.3273C99.8547 38.5754 99.8741 38.8617 99.8935 39.186C100.469 38.6708 101.149 38.2606 101.935 37.9552C102.74 37.6308 103.545 37.4686 104.351 37.4686C105.462 37.4686 106.497 37.7549 107.456 38.3273C108.414 38.8998 109.191 39.7204 109.785 40.789C110.379 41.8385 110.677 43.098 110.677 44.5673C110.677 46.1894 110.332 47.611 109.642 48.8323C108.97 50.0536 108.079 51.0077 106.967 51.6947C105.855 52.3625 104.647 52.6965 103.344 52.6965C102.673 52.6965 102.05 52.6106 101.475 52.4389C100.919 52.2863 100.392 52.0573 99.8935 51.7519V56.5035C99.8935 56.8851 99.8835 57.2191 99.8648 57.5053C99.8648 57.8107 99.836 58.1255 99.7785 58.4499C100.085 58.4308 100.382 58.4118 100.67 58.3927C100.976 58.3927 101.283 58.3831 101.59 58.364V59.5376H95.7241ZM103.287 51.5516C104.207 51.5516 104.993 51.2748 105.645 50.7215C106.315 50.149 106.824 49.3761 107.169 48.4029C107.532 47.4106 107.715 46.2848 107.715 45.0253C107.715 43.9949 107.561 43.0121 107.255 42.0771C106.967 41.123 106.497 40.3501 105.846 39.7585C105.213 39.1669 104.369 38.8712 103.315 38.8712C102.663 38.8712 102.031 39.0334 101.418 39.3578C100.823 39.6631 100.325 40.0352 99.9223 40.4741C99.9223 40.5505 99.9223 40.665 99.9223 40.8176C99.941 40.9512 99.9511 41.1992 99.9511 41.5618C99.9511 41.9053 99.9511 42.4301 99.9511 43.1361C99.9511 43.8231 99.941 44.7582 99.9223 45.9413C99.9223 47.1244 99.9223 48.6224 99.9223 50.4352C100.401 50.7978 100.919 51.0745 101.475 51.2653C102.05 51.4562 102.654 51.5516 103.287 51.5516ZM118.546 52.6965C118.106 52.6965 117.655 52.6297 117.195 52.4961C116.735 52.3816 116.303 52.1431 115.901 51.7805C115.518 51.418 115.211 50.8932 114.981 50.2062C114.751 49.5002 114.636 48.5747 114.636 47.4297L114.693 39.1288L112.479 39.1574V37.9266C112.977 37.9075 113.485 37.7262 114.003 37.3827C114.521 37.0202 114.981 36.5335 115.383 35.9229C115.805 35.3123 116.093 34.6444 116.246 33.9193H117.223V37.9266H122.054V39.0429L117.223 39.1002L117.166 47.0576C117.166 47.9163 117.233 48.651 117.367 49.2616C117.52 49.8532 117.76 50.3016 118.086 50.607C118.412 50.9123 118.834 51.0649 119.351 51.0649C119.888 51.0649 120.387 50.9123 120.847 50.607C121.326 50.3016 121.747 49.8819 122.112 49.3475L122.888 49.9772C122.466 50.607 122.045 51.1031 121.623 51.4657C121.22 51.8283 120.827 52.0954 120.444 52.2671C120.061 52.458 119.706 52.5725 119.38 52.6106C119.054 52.6679 118.776 52.6965 118.546 52.6965ZM124.261 51.3798C124.854 51.3798 125.267 51.2367 125.497 50.9504C125.727 50.6451 125.861 50.2349 125.9 49.7196C125.938 49.1853 125.957 48.5747 125.957 47.8877V41.3615C125.957 41.0561 125.966 40.7699 125.986 40.5027C126.005 40.2165 126.033 39.8825 126.072 39.5009C125.727 39.52 125.382 39.5391 125.037 39.5582C124.711 39.5773 124.376 39.5963 124.031 39.6154V38.4132C124.874 38.4132 125.526 38.3751 125.986 38.2987C126.446 38.2224 126.791 38.127 127.021 38.0125C127.27 37.898 127.462 37.774 127.596 37.6404H128.43V49.2044C128.43 49.586 128.42 49.9295 128.401 50.2349C128.401 50.5211 128.373 50.8264 128.315 51.1508C128.621 51.1317 128.919 51.1222 129.206 51.1222C129.513 51.1031 129.82 51.0841 130.127 51.0649V52.2385H124.261V51.3798ZM127.05 34.8066C126.647 34.8066 126.292 34.6444 125.986 34.32C125.679 33.9956 125.526 33.5949 125.526 33.1178C125.526 32.6407 125.679 32.24 125.986 31.9156C126.312 31.5721 126.676 31.4004 127.079 31.4004C127.519 31.4004 127.884 31.5721 128.171 31.9156C128.477 32.24 128.631 32.6407 128.631 33.1178C128.631 33.5949 128.468 33.9956 128.142 34.32C127.836 34.6444 127.471 34.8066 127.05 34.8066ZM139.479 52.6965C138.137 52.6965 136.92 52.3912 135.827 51.7805C134.735 51.1508 133.862 50.2921 133.211 49.2044C132.578 48.0976 132.262 46.8381 132.262 45.426C132.262 43.9185 132.578 42.5637 133.211 41.3615C133.843 40.1593 134.706 39.2147 135.799 38.5277C136.891 37.8216 138.118 37.4686 139.479 37.4686C140.821 37.4686 142.038 37.793 143.131 38.4418C144.224 39.0716 145.096 39.9303 145.748 41.018C146.399 42.1057 146.725 43.346 146.725 44.7391C146.725 46.2084 146.399 47.5537 145.748 48.775C145.115 49.9772 144.252 50.9313 143.16 51.6374C142.067 52.3435 140.84 52.6965 139.479 52.6965ZM139.709 51.5516C140.725 51.5516 141.53 51.2653 142.125 50.6928C142.718 50.1204 143.14 49.3761 143.39 48.4602C143.658 47.5442 143.792 46.5805 143.792 45.5692C143.792 44.7105 143.706 43.8708 143.534 43.0503C143.38 42.2107 143.131 41.4568 142.786 40.789C142.441 40.102 141.99 39.5582 141.434 39.1574C140.897 38.7567 140.245 38.5563 139.479 38.5563C138.482 38.5563 137.668 38.8426 137.035 39.415C136.402 39.9875 135.932 40.7317 135.626 41.6477C135.338 42.5637 135.195 43.5464 135.195 44.596C135.195 45.7791 135.357 46.905 135.683 47.9736C136.009 49.0231 136.507 49.8819 137.179 50.5497C137.849 51.2176 138.693 51.5516 139.709 51.5516ZM149.168 52.2385V51.3798C149.763 51.3798 150.175 51.2367 150.405 50.9504C150.635 50.6451 150.769 50.2349 150.807 49.7196C150.846 49.1853 150.865 48.5747 150.865 47.8877L150.893 41.3615C150.893 41.0561 150.893 40.7508 150.893 40.4455C150.913 40.1402 150.951 39.8253 151.008 39.5009C150.663 39.52 150.318 39.5391 149.973 39.5582C149.648 39.5773 149.312 39.5963 148.967 39.6154V38.4132C149.811 38.4132 150.443 38.3751 150.865 38.2987C151.306 38.2224 151.632 38.127 151.842 38.0125C152.054 37.898 152.226 37.774 152.36 37.6404H153.194C153.213 37.774 153.223 37.9266 153.223 38.0983C153.242 38.2701 153.261 38.4609 153.28 38.6708C153.3 38.8807 153.309 39.1193 153.309 39.3864C153.731 39.0238 154.191 38.6994 154.689 38.4132C155.207 38.127 155.744 37.898 156.299 37.7262C156.874 37.5545 157.44 37.4686 157.996 37.4686C159.664 37.4686 160.882 37.9934 161.648 39.0429C162.415 40.0734 162.798 41.6858 162.798 43.8804V49.2044C162.798 49.586 162.789 49.9295 162.769 50.2349C162.769 50.5211 162.741 50.8264 162.683 51.1508C162.99 51.1317 163.287 51.1222 163.574 51.1222C163.881 51.1031 164.188 51.0841 164.495 51.0649V52.2385H158.629V51.3798C159.223 51.3798 159.635 51.2367 159.865 50.9504C160.095 50.6451 160.229 50.2349 160.268 49.7196C160.306 49.1853 160.325 48.5747 160.325 47.8877V43.8804C160.306 42.2393 160.028 40.9989 159.491 40.1593C158.974 39.3196 158.15 38.9093 157.018 38.9284C156.328 38.9475 155.648 39.1288 154.977 39.4723C154.325 39.8158 153.779 40.2546 153.338 40.789C153.357 40.9416 153.366 41.1134 153.366 41.3042C153.366 41.4951 153.366 41.6954 153.366 41.9053L153.338 49.2044C153.338 49.586 153.328 49.9295 153.309 50.2349C153.309 50.5211 153.28 50.8264 153.223 51.1508C153.53 51.1317 153.826 51.1222 154.114 51.1222C154.421 51.1031 154.728 51.0841 155.034 51.0649V52.2385H149.168ZM172.529 52.6965C171.571 52.6965 170.718 52.5629 169.97 52.2958C169.223 52.0477 168.609 51.7614 168.13 51.4371L168.245 52.4389H167.037L166.865 47.5156H167.756C167.794 48.298 168.015 49.004 168.417 49.6338C168.82 50.2444 169.338 50.7215 169.97 51.0649C170.603 51.4084 171.284 51.5802 172.012 51.5802C172.51 51.5802 172.999 51.5038 173.478 51.3512C173.958 51.1794 174.36 50.9313 174.686 50.607C175.012 50.2635 175.175 49.8341 175.175 49.3189C175.175 48.7846 175.012 48.3457 174.686 48.0022C174.379 47.6396 173.967 47.3247 173.45 47.0576C172.932 46.7905 172.376 46.5424 171.782 46.3134C171.207 46.0844 170.632 45.8459 170.057 45.5978C169.481 45.3497 168.944 45.0539 168.446 44.7105C167.967 44.367 167.584 43.9471 167.296 43.451C167.008 42.9549 166.865 42.3442 166.865 41.6191C166.865 41.2183 166.942 40.7795 167.095 40.3024C167.248 39.8253 167.507 39.3769 167.871 38.9571C168.236 38.5182 168.734 38.1651 169.366 37.898C169.999 37.6117 170.804 37.4686 171.782 37.4686C172.299 37.4686 172.875 37.5545 173.507 37.7262C174.14 37.898 174.753 38.2224 175.347 38.6994L175.29 37.6117H176.498V42.6209H175.577C175.539 41.953 175.386 41.3137 175.117 40.7031C174.849 40.0734 174.456 39.5582 173.938 39.1574C173.421 38.7376 172.75 38.5277 171.926 38.5277C171.044 38.5277 170.353 38.7472 169.855 39.186C169.357 39.6249 169.108 40.1306 169.108 40.7031C169.108 41.2947 169.289 41.7908 169.654 42.1916C170.037 42.5732 170.526 42.9071 171.12 43.1934C171.715 43.4796 172.348 43.7563 173.018 44.0235C173.747 44.3288 174.456 44.6627 175.146 45.0253C175.836 45.3879 176.402 45.8459 176.843 46.3993C177.283 46.9336 177.504 47.6301 177.504 48.4888C177.504 49.4429 177.255 50.2349 176.756 50.8646C176.277 51.4943 175.654 51.9523 174.887 52.2385C174.14 52.5439 173.354 52.6965 172.529 52.6965Z" fill="#006D5B"/>
</svg>
